<svg width="40" height="40" viewBox="0 0 40 40" fill="none" xmlns="http://www.w3.org/2000/svg">
  <!-- Enhanced logo for header -->
  <defs>
    <linearGradient id="logoGradient" x1="0%" y1="0%" x2="100%" y2="100%">
      <stop offset="0%" style="stop-color:#6366f1;stop-opacity:1" />
      <stop offset="33%" style="stop-color:#8b5cf6;stop-opacity:1" />
      <stop offset="66%" style="stop-color:#a855f7;stop-opacity:1" />
      <stop offset="100%" style="stop-color:#14b8a6;stop-opacity:1" />
    </linearGradient>
    <linearGradient id="heartGradient" x1="0%" y1="0%" x2="100%" y2="100%">
      <stop offset="0%" style="stop-color:#f97316;stop-opacity:1" />
      <stop offset="100%" style="stop-color:#ef4444;stop-opacity:1" />
    </linearGradient>
    <filter id="glow">
      <feGaussianBlur stdDeviation="2" result="coloredBlur"/>
      <feMerge> 
        <feMergeNode in="coloredBlur"/>
        <feMergeNode in="SourceGraphic"/>
      </feMerge>
    </filter>
  </defs>
  
  <!-- Main rounded background with glow -->
  <rect width="40" height="40" rx="10" fill="url(#logoGradient)" filter="url(#glow)"/>
  
  <!-- Prayer hands (more detailed) -->
  <g transform="translate(20, 20)">
    <!-- Left hand -->
    <path d="M-3 -8c-1.5 0-2.5 1-2.5 2.5v8c0 2 1 3.5 2.5 3.5 1 0 1.8-0.5 2.2-1.2" fill="white" opacity="0.9"/>
    <!-- Right hand -->
    <path d="M3 -8c1.5 0 2.5 1 2.5 2.5v8c0 2-1 3.5-2.5 3.5-1 0-1.8-0.5-2.2-1.2" fill="white" opacity="0.9"/>
    <!-- Joined fingers -->
    <ellipse cx="0" cy="-2" rx="1.5" ry="6" fill="white" opacity="0.8"/>
    
    <!-- AI sparkles around hands -->
    <circle cx="-6" cy="-4" r="1" fill="white" opacity="0.7"/>
    <circle cx="6" cy="-4" r="1" fill="white" opacity="0.7"/>
    <circle cx="-4" cy="2" r="0.8" fill="white" opacity="0.6"/>
    <circle cx="4" cy="2" r="0.8" fill="white" opacity="0.6"/>
    
    <!-- Small prayer sparkle at top -->
    <path d="M0 -10l0.8 2L3 -7.2l-2.2 0.8L0 -4l-0.8-2.4L-3 -7.2l2.2-0.8L0 -10z" fill="white" opacity="0.9"/>
  </g>
  
  <!-- Heart overlay in corner -->
  <circle cx="32" cy="8" r="5" fill="url(#heartGradient)" opacity="0.95"/>
  <path d="M32 6c-1-1-2.6-1-3.6 0-1-1-2.6-1-3.6 0-1.4 1.4-1.4 3.6 0 5l3.6 3.6 3.6-3.6c1.4-1.4 1.4-3.6 0-5z" fill="white" transform="scale(0.6) translate(21, 5)"/>
</svg>